<?xml version="1.0" encoding="UTF-8"?>
<svg width="120px" height="37px" viewBox="0 0 120 37" version="1.1" xmlns="http://www.w3.org/2000/svg" xmlns:xlink="http://www.w3.org/1999/xlink">
    <!-- Generator: Sketch 57.1 (83088) - https://sketch.com -->
    <title>41615DE3-34B1-439F-9677-21923EE3EC8A</title>
    <desc>Created with Sketch.</desc>
    <defs>
        <linearGradient x1="18.2206406%" y1="68.651153%" x2="67.9893238%" y2="12.3026555%" id="linearGradient-1">
            <stop stop-color="#DE761B" offset="0%"></stop>
            <stop stop-color="#FFCB02" stop-opacity="0" offset="100%"></stop>
        </linearGradient>
        <linearGradient x1="49.9879223%" y1="91.0325767%" x2="49.9879223%" y2="-11.3665765%" id="linearGradient-2">
            <stop stop-color="#DE761B" offset="0%"></stop>
            <stop stop-color="#FFCB02" stop-opacity="0" offset="100%"></stop>
        </linearGradient>
        <linearGradient x1="67.1753212%" y1="102.834891%" x2="59.7861531%" y2="74.3068536%" id="linearGradient-3">
            <stop stop-color="#E78B24" offset="0%"></stop>
            <stop stop-color="#FFCB02" offset="100%"></stop>
        </linearGradient>
    </defs>
    <g id="页面-1" stroke="none" stroke-width="1" fill="none" fill-rule="evenodd">
        <g id="首页" transform="translate(-360.000000, -42.000000)">
            <g id="导航栏" transform="translate(0.000000, 30.000000)">
                <g id="logo_yeahmobi" transform="translate(360.000000, 12.000000)">
                    <path d="M38.6129032,24.6043011 C40.1333333,24.4688172 41.7075269,23.7032258 43.0365591,22.9806452 C43.2860215,22.8473118 43.5806452,22.9462366 43.4903226,23.2946237 L42.772043,26.0623656 C42.707532,26.4669504 42.4257471,26.8032744 42.0387097,26.9376344 C41.9204301,26.9913978 41.344086,27.2365591 41.2193548,27.283871 C38.4817204,28.3053763 34.5526882,28.1075269 32.4709677,25.9741935 C31.1204301,24.6050179 30.446595,22.8845878 30.4494533,20.8129032 C30.4494533,16.827957 33.1913978,13.5333333 37.3032258,13.5333333 C39.0863574,13.4926634 40.8040341,14.2054992 42.0344086,15.4967742 C43.2318894,16.6970569 43.9132664,18.317546 43.9333333,20.0129032 C43.944086,20.6 43.9655914,21.2387097 43.9333333,21.5483871 C43.9096774,21.8193548 43.7612903,21.9591398 43.4150538,21.9612903 L35.7419355,21.9763441 C35.6531356,21.9856247 35.5669826,21.9427 35.5209111,21.8662214 C35.4748397,21.7897428 35.4771669,21.6935168 35.5268817,21.6193548 L36.7784946,19.6365591 C36.9240401,19.403772 37.1814399,19.2648578 37.455914,19.2709677 L39.9505376,19.2709677 C39.9520953,18.9522183 39.8784141,18.6375997 39.7354839,18.3526882 C39.5788093,18.048893 39.3715457,17.7739961 39.1225806,17.5397849 C38.1113209,16.6264916 36.5791376,16.6062343 35.544086,17.4924731 C35.2114759,17.7875324 34.9516523,18.1555544 34.7849462,18.5677419 C33.5913978,21.4903226 35.0666667,24.911828 38.6064516,24.5892473 L38.6129032,24.6043011 Z" id="路径" fill="#FDB812" fill-rule="nonzero"></path>
                    <path d="M65.2322581,27.4408602 C65.2322581,27.5634409 65.1634409,27.7483871 64.8731183,27.7483871 L61.5913978,27.7483871 C61.4430108,27.7483871 61.2064516,27.6946237 61.2064516,27.4494624 L61.2064516,12.1505376 C61.2365539,11.9392522 61.3729599,11.7581895 61.5677419,11.6709677 L64.7612903,9.76989247 C65,9.62795699 65.2215054,9.73548387 65.2215054,10.0623656 L65.2215054,14.8473118 C65.6233037,14.4083461 66.1217586,14.0689255 66.6774194,13.855914 C67.3342408,13.6411606 68.0232243,13.5414871 68.7139785,13.5612903 C70.311828,13.5612903 71.5419355,14.0172043 72.3935484,14.9333333 C73.2451613,15.8494624 73.683871,17.1784946 73.683871,18.9290323 C73.683871,21.6 73.6451613,24.7634409 73.6451613,27.4301075 C73.6451613,27.7225806 73.4623656,27.7483871 73.3419355,27.7483871 L69.8924731,27.7483871 C69.7248164,27.7391307 69.5950804,27.5979475 69.6,27.4301075 C69.6,25.1741935 69.6,22.427957 69.6,20.1741935 C69.6,19.0272401 69.4286738,18.2172043 69.0860215,17.744086 C68.7462366,17.2645161 68.1870968,17.0236559 67.4021505,17.0236559 C66.6795699,17.0236559 66.1354839,17.2752688 65.7741935,17.772043 C65.4129032,18.2688172 65.2322581,19.0623656 65.2322581,20.1204301 C65.2322581,22.3956989 65.2322581,25.1677419 65.2322581,27.4322581 L65.2322581,27.4408602 Z" id="路径" fill="#FDB812" fill-rule="nonzero"></path>
                    <path d="M58.4731183,13.1677419 L55.5591398,14.8645161 C55.4238881,14.9464849 55.3032396,15.050417 55.2021505,15.172043 C55.1268817,15.0989247 55.0516129,15.0215054 54.9763441,14.9333333 C54.5870193,14.4592388 54.0950675,14.0797961 53.5376344,13.8236559 C52.9613,13.5852713 52.3418362,13.4688473 51.7182796,13.4817204 C49.9519713,13.4817204 48.4544803,14.1756272 47.2258065,15.5634409 C45.9971326,16.9512545 45.3806452,18.6587814 45.3763441,20.6860215 C45.3763441,22.7505376 45.9706093,24.465233 47.1591398,25.8301075 C48.3476703,27.1949821 49.8136201,27.8781362 51.5569892,27.8796413 C52.215169,27.8832395 52.8664446,27.7453569 53.4666667,27.4752688 C54.0549622,27.2225889 54.5719775,26.8289186 54.972043,26.3290323 C55.0107527,26.4129032 55.0494624,26.4903226 55.0903226,26.5677419 L55.0903226,27.427957 C55.0903226,27.7225806 55.3182796,27.7376344 55.4602151,27.7376344 L58.6301075,27.7376344 C58.7128316,27.7371498 58.7917662,27.702888 58.8486151,27.6427905 C58.905464,27.5826931 58.9352912,27.5019782 58.9311828,27.4193548 L58.9311828,13.4387097 C58.9414672,13.3254523 58.8856503,13.2163883 58.7877704,13.1584875 C58.6898904,13.1005867 58.5674261,13.1041886 58.4731183,13.1677419 Z M54.0967742,23.0365591 C53.6634502,23.6327446 52.9692671,23.9834392 52.2322581,23.9784946 C51.4837325,23.998444 50.7716619,23.6556249 50.3204301,23.0580645 C49.8365591,22.4451613 49.5956989,21.6387097 49.5956989,20.6301075 C49.5956989,19.6688172 49.8451613,18.8795699 50.3419355,18.2645161 C50.7988939,17.6900764 51.4928572,17.3553612 52.2268817,17.3553612 C52.9609062,17.3553612 53.6548696,17.6900764 54.111828,18.2645161 C54.5978495,18.8709677 54.8415771,19.6594982 54.8430108,20.6301075 C54.8786653,21.4942397 54.6150903,22.3442123 54.0967742,23.0365591 L54.0967742,23.0365591 Z" id="形状" fill="#FDB812" fill-rule="nonzero"></path>
                    <path d="M77.9526882,16.744086 L77.9526882,16.3698925 C77.9645523,16.2182569 77.8778692,16.0760966 77.7376344,16.0172043 L76.2795699,15.1569892 C76.0989247,15.0494624 75.9698925,15.1569892 75.9698925,15.3010753 C75.9698925,19.172043 75.9483871,23.6150538 75.9483871,27.4924731 C75.941818,27.5551671 75.9610144,27.6178383 76.0015689,27.6660982 C76.0421234,27.7143581 76.1005523,27.7440609 76.1634409,27.7483871 L77.711828,27.7483871 C77.8774194,27.7483871 77.9268817,27.6150538 77.9268817,27.4924731 C77.9268817,24.9505376 77.9419355,22.2408602 77.9419355,19.6946237 C77.9188034,19.1694143 78.0424193,18.6481427 78.2989247,18.1892473 C78.5151537,17.8125745 78.8426926,17.5120801 79.2365591,17.3290323 C79.4380112,17.2361569 79.6484218,17.1640984 79.8645161,17.1139785 C80.089481,17.0620464 80.3196569,17.0360705 80.5505376,17.0365591 C81.2371682,17.0156828 81.9029274,17.2740719 82.3956989,17.7526882 C82.888172,18.2301075 83.1311828,18.9569892 83.1311828,19.9419355 C83.1311828,22.4064516 83.1462366,25.0537634 83.1462366,27.5182796 C83.1446573,27.5855169 83.1720347,27.6501936 83.2214072,27.6958631 C83.2707798,27.7415327 83.3373904,27.7637951 83.4043011,27.7569892 L84.8817204,27.7569892 C84.9487956,27.7684021 85.017315,27.7474001 85.0664737,27.7003602 C85.1156325,27.6533204 85.1396311,27.5857922 85.1311828,27.5182796 C85.1311828,25.0215054 85.1311828,22.3419355 85.1311828,19.8408602 C85.1311828,18.8666667 85.3870968,18.1526882 85.8967742,17.7075269 C86.4282882,17.2521768 87.1112643,17.0127514 87.8107527,17.0365591 C88.2618508,17.0301562 88.7067461,17.1421215 89.1010753,17.3612903 C89.4916572,17.5856415 89.8067806,17.9209748 90.0064516,18.3247312 C90.2328863,18.7937003 90.3456107,19.3094328 90.3354839,19.8301075 C90.3354839,22.3290323 90.3591398,25.0150538 90.3591398,27.5096774 C90.3591398,27.6516129 90.4215054,27.7483871 90.6064516,27.7483871 L92.111828,27.7483871 C92.1732093,27.7487597 92.2318246,27.722885 92.27291,27.6772802 C92.3139955,27.6316754 92.3336349,27.5706873 92.3268817,27.5096774 C92.3268817,24.9655914 92.3268817,22.2408602 92.3268817,19.6946237 C92.3443574,18.886325 92.1532685,18.0871587 91.772043,17.3741935 C91.4203839,16.7357979 90.899502,16.2067308 90.2666667,15.8451613 C89.9510754,15.6664115 89.6144287,15.5277073 89.2645161,15.4322581 C88.9145479,15.3344099 88.5526299,15.2859129 88.1892473,15.288172 C87.4739358,15.2807608 86.7663664,15.4366909 86.1204301,15.744086 C85.4086679,16.121593 84.8030627,16.6717399 84.3591398,17.344086 C84.0091779,16.7301282 83.5228317,16.204786 82.9376344,15.8086022 C82.3871295,15.4574767 81.7453187,15.2764531 81.0924731,15.288172 C79.8747393,15.242867 78.7098255,15.7872941 77.9634409,16.7505376 L77.9182796,16.7505376 L77.9526882,16.744086 Z" id="路径" fill="#939598" fill-rule="nonzero"></path>
                    <path d="M115.763441,18.4 C115.374417,17.4918717 114.74547,16.706804 113.944086,16.1290323 C113.157014,15.5667064 112.210187,15.2719534 111.243011,15.288172 C109.953933,15.2691117 108.737084,15.8819538 107.984946,16.9290323 L107.926882,16.9290323 L107.926882,12.4688172 C107.926882,12.1892473 107.787097,12.0817204 107.507527,12.2537634 L106.163441,13.0580645 C105.948387,13.1827957 105.931183,13.227957 105.931183,13.4193548 C105.931183,18.0537634 105.931183,22.8709677 105.931183,27.5053763 C105.92108,27.5704764 105.941373,27.6366156 105.986249,27.6848466 C106.031125,27.7330777 106.095632,27.758079 106.16129,27.7526882 L107.692473,27.7526882 C107.860215,27.7526882 107.907527,27.627957 107.907527,27.5053763 L107.907527,26.1096774 L107.965591,26.1096774 C108.218874,26.6307306 108.62664,27.0610258 109.133333,27.3419355 C109.710677,27.6352679 110.352754,27.7780339 111,27.7569892 C111.758885,27.7663912 112.510831,27.6116003 113.204301,27.3032258 C113.868101,27.0089695 114.456381,26.5677599 114.924731,26.0129032 C115.413413,25.4278469 115.784378,24.7538309 116.017204,24.027957 C116.27159,23.2388262 116.397921,22.4140401 116.391398,21.5849462 C116.412622,20.490574 116.198471,19.4044153 115.763441,18.4 L115.763441,18.4 Z M114.086022,23.6731183 C113.987258,24.0035833 113.842468,24.3185008 113.655914,24.6086022 C113.477259,24.8783362 113.264776,25.124065 113.023656,25.3397849 C112.537244,25.7820941 111.900358,26.0220804 111.243011,26.0107527 C110.505895,26.044962 109.781433,25.8103524 109.204301,25.3505376 C108.687124,24.9138216 108.302694,24.3409013 108.094624,23.6967742 C107.881894,23.1197771 107.749473,22.5162813 107.701075,21.9032258 C107.672188,21.6310485 107.66787,21.3568229 107.688172,21.083871 C107.699888,20.7743752 107.738019,20.4664459 107.802151,20.1634409 C107.884338,19.7882679 108.003933,19.42228 108.15914,19.0709677 C108.428207,18.4529902 108.865649,17.9231413 109.421505,17.5419355 C109.949061,17.1967111 110.56742,17.016294 111.197849,17.0236559 C111.517318,17.0218141 111.834408,17.0786715 112.133333,17.1913978 C112.425928,17.3073814 112.698162,17.4692696 112.939785,17.6709677 C113.43522,18.0916479 113.810008,18.6363897 114.025806,19.2494624 C114.157257,19.5932897 114.258008,19.9480798 114.326882,20.3096774 C114.393898,20.6974308 114.426284,21.0903777 114.423656,21.483871 C114.428979,22.2269852 114.314984,22.9661365 114.086022,23.6731183 Z" id="形状" fill="#939598" fill-rule="nonzero"></path>
                    <path d="M117.849462,14.9376344 C117.849462,15.0430108 117.88172,15.3182796 118.195699,15.1526882 L119.64086,14.2817204 C119.781467,14.230535 119.869831,14.090921 119.855914,13.9419355 L119.855914,12.4172043 C119.855914,12.311828 119.776344,12.0688172 119.511828,12.2021505 L118.064516,13.0731183 C117.922736,13.1253314 117.834267,13.2668818 117.849462,13.4172043 L117.849462,14.9376344 L117.849462,14.9376344 Z" id="路径" fill="#939598" fill-rule="nonzero"></path>
                    <path d="M119.843011,15.4086022 C119.843011,15.2430108 119.741935,15.1010753 119.498925,15.2365591 L118.053763,16.0967742 C117.911983,16.1489873 117.823514,16.2905377 117.83871,16.4408602 L117.83871,17.9462366 C117.83871,21.0817204 117.83871,24.2967742 117.83871,27.483871 C117.833784,27.5527846 117.859794,27.6203139 117.909676,27.6681173 C117.959558,27.7159207 118.028132,27.7390352 118.096774,27.7311828 L119.582796,27.7311828 C119.650217,27.7402092 119.717935,27.7168052 119.765395,27.668074 C119.812855,27.6193428 119.834461,27.5510307 119.823656,27.483871 L119.84086,15.3956989 L119.843011,15.4086022 Z" id="路径" fill="#939598" fill-rule="nonzero"></path>
                    <path d="M103.870968,18.4365591 C103.459584,17.5223715 102.812351,16.7341134 101.995699,16.1526882 C101.168315,15.5745754 100.179058,15.2734316 99.1698925,15.2924731 C98.1869351,15.2806611 97.2221983,15.5581164 96.3956989,16.0903226 C95.5631299,16.638899 94.9002537,17.409027 94.4817204,18.3139785 C94.0114667,19.3195281 93.7768388,20.4191165 93.7956989,21.5290323 C93.7962741,22.0694573 93.8517561,22.6084257 93.9612903,23.1376344 C94.0639113,23.6485375 94.2255695,24.1457809 94.4430108,24.6193548 C94.8489445,25.541758 95.5006476,26.3348123 96.3268817,26.911828 C98.0537235,28.0446871 100.288212,28.0446871 102.015054,26.911828 C102.834685,26.3367952 103.477459,25.5443126 103.870968,24.6236559 C104.304606,23.6470098 104.52457,22.5889846 104.516129,21.5204301 C104.526702,20.457905 104.306584,19.4057392 103.870968,18.4365591 L103.870968,18.4365591 Z M102.427957,22.6946237 C102.360462,23.0652358 102.263377,23.4298435 102.137634,23.7849462 C101.918947,24.4214081 101.526334,24.9838793 101.004301,25.4086022 C100.465644,25.8210312 99.800604,26.0338441 99.1225806,26.0107527 C97.9741935,26.0107527 97.1333333,25.544086 96.5913978,24.6193548 C96.051973,23.6795274 95.773548,22.6126026 95.7849462,21.5290323 C95.7726928,20.7409017 95.9083718,19.9574649 96.1849462,19.2193548 C96.411855,18.5827328 96.8126827,18.022468 97.3419355,17.6021505 C97.8688671,17.2092519 98.5128577,17.0054478 99.1698925,17.0236559 C99.8373217,17.0039702 100.490189,17.2210847 101.012903,17.6365591 C101.268247,17.8470689 101.492673,18.0924896 101.67957,18.3655914 C101.87362,18.6458428 102.031839,18.9492754 102.150538,19.2688172 C102.41008,19.9937267 102.538251,20.7591161 102.529032,21.5290323 C102.529179,21.9201459 102.492457,22.3104025 102.419355,22.6946237 L102.427957,22.6946237 Z" id="形状" fill="#939598" fill-rule="nonzero"></path>
                    <path d="M35.1569892,10.0064516 L35.1569892,10.0064516 C34.5505376,10.4365591 33.1591398,11.027957 32.7913978,11.5569892 C32.1655914,12.4580645 31.483871,13.4344086 30.7827957,14.4408602 C29.6344086,16.088172 28.0150538,18.688172 26.9483871,20.2473118 C26.7684602,19.6014497 26.4945644,18.9855463 26.1354839,18.4193548 C25.3053763,17.0860215 24.0473118,15.2236559 23.0731183,13.5849462 L26.5139785,9.60430108 C27.4129032,8.5655914 28.0666667,8.09892473 29.716129,8.54408602 L35.1591398,10.0043011" id="路径" fill="#FFCB02"></path>
                    <path d="M35.1569892,10.0064516 L35.1569892,10.0064516 C34.5505376,10.4365591 33.1591398,11.027957 32.7913978,11.5569892 C32.1655914,12.4580645 31.483871,13.4344086 30.7827957,14.4408602 C29.6344086,16.088172 28.0150538,18.688172 26.9483871,20.2473118 C26.7684602,19.6014497 26.4945644,18.9855463 26.1354839,18.4193548 C25.3053763,17.0860215 24.0473118,15.2236559 23.0731183,13.5849462 L26.5139785,9.60430108 C27.4129032,8.5655914 28.0666667,8.09892473 29.716129,8.54408602 L35.1591398,10.0043011" id="路径" fill="#FFCB02"></path>
                    <path d="M35.1569892,10.0064516 L35.1569892,10.0064516 C34.5505376,10.4365591 33.1591398,11.027957 32.7913978,11.5569892 C32.1655914,12.4580645 31.483871,13.4344086 30.7827957,14.4408602 C29.6344086,16.088172 28.0150538,18.688172 26.9483871,20.2473118 C26.7684602,19.6014497 26.4945644,18.9855463 26.1354839,18.4193548 C25.3053763,17.0860215 24.0473118,15.2236559 23.0731183,13.5849462 L26.5139785,9.60430108 C27.4129032,8.5655914 28.0666667,8.09892473 29.716129,8.54408602 L35.1591398,10.0043011" id="路径" fill="#FDB812"></path>
                    <path d="M35.1569892,10.0064516 L35.1569892,10.0064516 C34.5505376,10.4365591 33.1591398,11.027957 32.7913978,11.5569892 C32.1655914,12.4580645 31.483871,13.4344086 30.7827957,14.4408602 C29.6344086,16.088172 28.0150538,18.688172 26.9483871,20.2473118 C26.7684602,19.6014497 26.4945644,18.9855463 26.1354839,18.4193548 C25.3053763,17.0860215 24.0473118,15.2236559 23.0731183,13.5849462 L26.5139785,9.60430108 C27.4129032,8.5655914 28.0666667,8.09892473 29.716129,8.54408602 L35.1591398,10.0043011" id="路径" fill="url(#linearGradient-1)"></path>
                    <path d="M0.133333333,0.129032258 L0.133333333,0.129032258 L18.8580645,20.344086 L19.0731183,30.0860215 C19.144086,32.6408602 17.7333333,34.5290323 16.3462366,36.7010753 L24.1698925,32.483871 C25.9655914,31.4086022 26.8666667,30.4344086 26.9397849,28.4430108 C26.9956989,26.9935484 27.0516129,23.0795699 27.1032258,21.4989247 C27.2150538,19.9741935 26.772043,18.827957 26.116129,17.7462366 L19.5462366,8.56989247 C18.0602151,6.49247312 17.4946237,4.97634409 13.8258065,3.95053763 L0.133333333,0.129032258" id="路径" fill="#FFCB02"></path>
                    <path d="M0.133333333,0.129032258 L0.133333333,0.129032258 L18.8580645,20.344086 L19.0731183,30.0860215 C19.144086,32.6408602 17.7333333,34.5290323 16.3462366,36.7010753 L24.1698925,32.483871 C25.9655914,31.4086022 26.8666667,30.4344086 26.9397849,28.4430108 C26.9956989,26.9935484 27.0516129,23.0795699 27.1032258,21.4989247 C27.2150538,19.9741935 26.772043,18.827957 26.116129,17.7462366 L19.5462366,8.56989247 C18.0602151,6.49247312 17.4946237,4.97634409 13.8258065,3.95053763 L0.133333333,0.129032258" id="路径" fill="url(#linearGradient-2)"></path>
                    <path d="M26.9548387,27.7419355 C27.0043011,25.9913978 27.0516129,22.8666667 27.0967742,21.5053763 C27.2086022,19.9806452 26.7655914,18.8344086 26.1096774,17.7526882 L19.5397849,8.57634409 C18.0537634,6.49892473 17.488172,4.9827957 13.8193548,3.95698925 L0.133333333,0.129032258 L0.133333333,0.129032258 L10.4387097,11.2580645 L24.2752688,25.2043011" id="路径" fill="url(#linearGradient-3)"></path>
                </g>
            </g>
        </g>
    </g>
</svg>